<?xml version="1.0" encoding="UTF-8"?>
<svg xmlns="http://www.w3.org/2000/svg" xmlns:xlink="http://www.w3.org/1999/xlink" width="30px" height="30px" viewBox="0 0 30 30" version="1.1">
<g id="surface59810">
<path style=" stroke:none;fill-rule:nonzero;fill:rgb(96.862745%,42.745098%,42.745098%);fill-opacity:1;" d="M 15 29.0625 C 7.238281 29.0625 0.9375 22.761719 0.9375 15 C 0.9375 7.238281 7.238281 0.9375 15 0.9375 C 22.761719 0.9375 29.0625 7.238281 29.0625 15 C 29.0625 22.761719 22.761719 29.0625 15 29.0625 Z M 15 29.0625 "/>
<path style=" stroke:none;fill-rule:nonzero;fill:rgb(78.039216%,26.27451%,26.27451%);fill-opacity:1;" d="M 15 1.125 C 22.648438 1.125 28.875 7.351562 28.875 15 C 28.875 22.648438 22.648438 28.875 15 28.875 C 7.351562 28.875 1.125 22.648438 1.125 15 C 1.125 7.351562 7.351562 1.125 15 1.125 M 15 0.75 C 7.125 0.75 0.75 7.125 0.75 15 C 0.75 22.875 7.125 29.25 15 29.25 C 22.875 29.25 29.25 22.875 29.25 15 C 29.25 7.125 22.875 0.75 15 0.75 Z M 15 0.75 "/>
<path style=" stroke:none;fill-rule:nonzero;fill:rgb(100%,100%,100%);fill-opacity:1;" d="M 13.875 5.25 L 16.125 5.25 L 16.125 15 L 13.875 15 Z M 13.875 5.25 "/>
<path style=" stroke:none;fill-rule:nonzero;fill:rgb(100%,100%,100%);fill-opacity:1;" d="M 15 23.625 C 12.863281 23.625 10.761719 22.835938 9.074219 21.300781 C 7.386719 19.726562 6.449219 17.585938 6.375 15.261719 C 6.300781 12.976562 7.125 10.761719 8.699219 9.074219 C 8.886719 8.886719 9.074219 8.699219 9.300781 8.511719 L 10.800781 10.199219 C 10.648438 10.351562 10.5 10.460938 10.351562 10.613281 C 9.1875 11.851562 8.585938 13.460938 8.625 15.1875 C 8.664062 16.875 9.375 18.488281 10.613281 19.648438 C 13.164062 22.050781 17.210938 21.9375 19.613281 19.386719 C 22.011719 16.835938 21.898438 12.789062 19.351562 10.386719 L 20.886719 8.738281 C 24.335938 12 24.523438 17.476562 21.261719 20.925781 C 19.613281 22.726562 17.289062 23.625 15 23.625 Z M 15 23.625 "/>
</g>
</svg>
